<?xml version="1.0" standalone="no"?>
<!DOCTYPE svg PUBLIC "-//W3C//DTD SVG 20010904//EN"
 "http://www.w3.org/TR/2001/REC-SVG-20010904/DTD/svg10.dtd">
<svg version="1.0" xmlns="http://www.w3.org/2000/svg"
 width="309.000000pt" height="60.000000pt" viewBox="0 0 309.000000 60.000000"
 preserveAspectRatio="xMidYMid meet">

<g transform="translate(0.000000,60.000000) scale(0.100000,-0.100000)"
fill="#000000" stroke="none">
<path d="M137 413 c-18 -17 -2 -24 50 -21 77 4 86 28 11 28 -30 0 -58 -3 -61
-7z"/>
<path d="M240 360 c-30 -46 -35 -50 -72 -50 -36 0 -39 2 -27 16 7 8 21 13 30
11 10 -3 24 2 30 10 11 12 4 14 -46 11 -39 -2 -60 -8 -63 -17 -3 -8 0 -11 7
-7 15 10 14 0 -5 -29 l-16 -25 73 0 74 0 23 41 c19 32 26 38 35 29 9 -10 9
-14 0 -17 -20 -7 -15 -23 6 -23 10 0 24 -7 31 -15 13 -15 44 -21 38 -7 -10 23
-74 121 -79 122 -4 0 -21 -22 -39 -50z"/>
<path d="M83 253 c-4 -10 -1 -19 6 -21 10 -3 11 -6 1 -12 -7 -4 -8 -10 -3 -13
5 -3 15 -1 23 4 13 8 12 11 -2 23 -23 17 -23 27 -1 19 11 -4 14 -3 9 5 -10 17
-26 15 -33 -5z"/>
<path d="M137 264 c-4 -4 -7 -19 -6 -33 0 -14 3 -20 6 -13 2 6 11 12 20 12 8
0 13 7 11 17 -3 18 -20 27 -31 17z"/>
<path d="M184 256 c-9 -23 0 -51 16 -51 10 0 15 10 15 29 0 32 -21 47 -31 22z
m26 -21 c0 -8 -4 -15 -10 -15 -5 0 -10 7 -10 15 0 8 5 15 10 15 6 0 10 -7 10
-15z"/>
<path d="M237 264 c-4 -4 -7 -19 -6 -33 0 -14 3 -20 6 -13 4 10 8 10 20 0 12
-10 14 -8 11 17 -3 28 -18 42 -31 29z"/>
<path d="M288 240 c2 -16 8 -30 12 -30 4 0 10 14 12 30 4 23 1 30 -12 30 -13
0 -16 -7 -12 -30z"/>
<path d="M337 263 c-13 -13 -7 -33 11 -34 15 0 15 -1 -2 -8 -11 -4 -15 -10
-10 -14 6 -3 16 -1 24 4 13 8 12 11 -2 23 -23 17 -23 27 -1 19 11 -4 14 -3 9
5 -8 13 -19 15 -29 5z"/>
</g>
</svg>
