<svg width="128" height="128" viewBox="0 0 128 128" fill="none" xmlns="http://www.w3.org/2000/svg">
<g clip-path="url(#clip0_2_6)">
<rect x="2" y="60" width="40" height="8" rx="4" fill="#FFC700"/>
<rect x="86" y="60" width="40" height="8" rx="4" fill="#FFC700"/>
<rect x="60" y="126" width="40" height="8" rx="4" transform="rotate(-90 60 126)" fill="#FFC700"/>
<rect x="60" y="42" width="40" height="8" rx="4" transform="rotate(-90 60 42)" fill="#FFC700"/>
<rect x="105.012" y="110.669" width="40" height="8" rx="4" transform="rotate(-135 105.012 110.669)" fill="#FFC700"/>
<rect x="45.6152" y="51.2721" width="40" height="8" rx="4" transform="rotate(-135 45.6152 51.2721)" fill="#FFC700"/>
<rect x="110.669" y="22.9878" width="40" height="8" rx="4" transform="rotate(135 110.669 22.9878)" fill="#FFC700"/>
<rect x="51.2721" y="82.3848" width="40" height="8" rx="4" transform="rotate(135 51.2721 82.3848)" fill="#FFC700"/>
<rect x="5.18872" y="84.0309" width="28" height="4" rx="2" transform="rotate(-22.5 5.18872 84.0309)" fill="#FFC700"/>
<rect x="93.8812" y="47.2933" width="28" height="4" rx="2" transform="rotate(-22.5 93.8812 47.2933)" fill="#FFC700"/>
<rect x="84.0308" y="122.811" width="28" height="4" rx="2" transform="rotate(-112.5 84.0308 122.811)" fill="#FFC700"/>
<rect x="47.2932" y="34.1188" width="28" height="4" rx="2" transform="rotate(-112.5 47.2932 34.1188)" fill="#FFC700"/>
<rect x="118.667" y="88.8088" width="28" height="4" rx="2" transform="rotate(-157.5 118.667 88.8088)" fill="#FFC700"/>
<rect x="29.9749" y="52.0712" width="28" height="4" rx="2" transform="rotate(-157.5 29.9749 52.0712)" fill="#FFC700"/>
<rect x="87.7263" y="6.71954" width="28" height="4" rx="2" transform="rotate(112.5 87.7263 6.71954)" fill="#FFC700"/>
<rect x="50.9887" y="95.4119" width="28" height="4" rx="2" transform="rotate(112.5 50.9887 95.4119)" fill="#FFC700"/>
</g>
<defs>
<clipPath id="clip0_2_6">
<rect width="128" height="128" fill="white"/>
</clipPath>
</defs>
</svg>
